<svg width="123" height="123" viewBox="0 0 123 123" fill="none" xmlns="http://www.w3.org/2000/svg">
<path d="M118.823 42.5297L80.1913 3.89863C78.1058 1.81343 75.3249 0.664917 72.3602 0.664917C69.3957 0.664917 66.6145 1.81296 64.5291 3.89816L3.29506 65.1324C1.20986 67.2178 0.0613403 69.9986 0.0613403 72.9633C0.0613403 75.928 1.20986 78.7092 3.29506 80.7941L8.05877 85.5579C8.05925 85.5581 8.05949 85.5586 8.05997 85.5591C8.06044 85.5595 8.06092 85.56 8.0614 85.5605L40.0769 117.576H35.6439C34.2404 117.576 33.1024 118.714 33.1024 120.117C33.1024 121.521 34.2404 122.659 35.6439 122.659H49.7475C49.7508 122.659 49.7539 122.659 49.7573 122.659C49.7606 122.659 49.7637 122.659 49.767 122.659L86.475 122.659C87.8785 122.659 89.0165 121.521 89.0165 120.118C89.0165 118.714 87.8785 117.576 86.475 117.576L59.4386 117.576L118.823 58.1915C123.141 53.8734 123.141 46.8474 118.823 42.5297ZM115.229 54.5973L53.9942 115.832C52.8711 116.955 51.37 117.574 49.7666 117.576H49.7473C48.1444 117.573 46.6437 116.955 45.5211 115.832L13.4516 83.7619L72.2582 24.9548C73.2506 23.9624 73.2506 22.353 72.2582 21.3606C71.2655 20.3682 69.6566 20.3682 68.6637 21.3608L9.85708 80.1679L6.88905 77.1999C5.76413 76.075 5.14459 74.5705 5.14459 72.9635C5.14459 71.3565 5.76413 69.8518 6.88929 68.7266L68.1233 7.49263C69.2484 6.3677 70.7532 5.74817 72.3602 5.74817C73.9671 5.74817 75.4719 6.3677 76.597 7.49287L90.3466 21.2422L31.5392 80.05C30.5468 81.0422 30.5468 82.6515 31.5392 83.6445C32.0356 84.1406 32.6861 84.3886 33.3364 84.3886C33.9866 84.3886 34.6371 84.1403 35.1335 83.6442L93.9408 24.8366L115.229 46.1237C117.564 48.4599 117.564 52.2612 115.229 54.5973Z" fill="#E5695A"/>
<path d="M62.6819 74.0674C61.6895 73.0749 60.0806 73.0752 59.0874 74.0674L39.0875 94.067C38.0951 95.0595 38.0951 96.6686 39.0875 97.6615C39.5839 98.1578 40.2344 98.4059 40.8847 98.4059C41.5349 98.4059 42.1854 98.1576 42.6818 97.6615L62.6817 77.6618C63.6743 76.6689 63.6743 75.0598 62.6819 74.0674Z" fill="#E5695A"/>
<path d="M54.4788 93.0529L46.276 101.256C45.2835 102.248 45.2835 103.858 46.276 104.85C46.7723 105.346 47.4228 105.595 48.0731 105.595C48.7238 105.595 49.3739 105.346 49.8702 104.85L58.073 96.6474C59.0655 95.6549 59.0655 94.0456 58.073 93.0529C57.0806 92.0602 55.472 92.0602 54.4788 93.0529Z" fill="#E5695A"/>
<path d="M62.0273 85.5051L60.9491 86.5831C59.9564 87.5755 59.9564 89.1846 60.9489 90.1775C61.445 90.6739 62.0957 90.9221 62.746 90.9221C63.3963 90.9221 64.0468 90.6739 64.5429 90.1775L65.6211 89.0995C66.6138 88.1071 66.6138 86.498 65.6213 85.5053C64.6294 84.5129 63.0198 84.5126 62.0273 85.5051Z" fill="#E5695A"/>
<path d="M97.0592 39.6903C96.5826 39.2137 95.9362 38.9459 95.2621 38.9459C94.588 38.9459 93.9418 39.2137 93.465 39.6903L82.6815 50.4735C82.205 50.9503 81.9371 51.5965 81.9371 52.2706C81.9371 52.9447 82.205 53.5912 82.6815 54.0677L89.8705 61.256C90.3668 61.7523 91.0173 62.0003 91.6676 62.0003C92.3183 62.0003 92.9684 61.7521 93.4647 61.256L104.248 50.4733C105.24 49.4808 105.24 47.8715 104.248 46.879L97.0592 39.6903ZM91.6674 55.8648L88.0729 52.2706L95.2618 45.0819L98.8561 48.6764L91.6674 55.8648Z" fill="#E5695A"/>
<path d="M76.3921 19.7683C77.0429 19.7683 77.6934 19.5201 78.1895 19.0235L79.2677 17.9448C80.2599 16.9521 80.2596 15.3427 79.267 14.3505C78.2745 13.3583 76.6649 13.3586 75.6727 14.3513L74.5945 15.43C73.6023 16.4226 73.6026 18.032 74.5952 19.0242C75.0916 19.5205 75.7416 19.7683 76.3921 19.7683Z" fill="#E5695A"/>
<path d="M25.6086 85.9798L24.5304 87.058C23.538 88.0502 23.538 89.6596 24.5304 90.6525C25.0267 91.1486 25.6773 91.3966 26.3275 91.3966C26.9778 91.3966 27.6283 91.1486 28.1246 90.6525L29.2029 89.5743C30.1953 88.5816 30.1953 86.9722 29.2029 85.9798C28.2102 84.9871 26.6013 84.9871 25.6086 85.9798Z" fill="#E5695A"/>
</svg>
