<svg width="170" height="170" viewBox="0 0 170 170" fill="none" xmlns="http://www.w3.org/2000/svg">
<path d="M69.0309 53.2316C67.6556 53.2316 66.5406 54.3462 66.5406 55.7218V58.3837C66.5406 59.7593 67.6556 60.8739 69.0309 60.8739C70.4061 60.8739 71.5211 59.7593 71.5211 58.3837V55.7218C71.5211 54.3465 70.4058 53.2316 69.0309 53.2316Z" fill="#E5695A"/>
<path d="M100.969 53.2316C99.5938 53.2316 98.4792 54.3462 98.4792 55.7218V58.3837C98.4792 59.7593 99.5938 60.8739 100.969 60.8739C102.345 60.8739 103.46 59.7593 103.46 58.3837V55.7218C103.46 54.3465 102.345 53.2316 100.969 53.2316Z" fill="#E5695A"/>
<path d="M94.7575 72.6045C93.792 71.6247 92.2151 71.6147 91.2363 72.5806C90.3272 73.4771 88.1485 74.5243 85.0002 74.5243C81.8518 74.5243 79.6734 73.4771 78.7643 72.5806C77.7848 71.614 76.208 71.625 75.2428 72.6041C74.2769 73.5833 74.2876 75.1598 75.2664 76.1257C77.411 78.2413 81.0497 79.5047 85.0002 79.5047C88.9503 79.5047 92.589 78.2413 94.7336 76.1257C95.7127 75.1601 95.7234 73.5833 94.7575 72.6045Z" fill="#E5695A"/>
<path d="M71.6921 45.2469H66.3693C64.994 45.2469 63.8791 46.3616 63.8791 47.7372C63.8791 49.1128 64.994 50.2274 66.3693 50.2274H71.6924C73.0677 50.2274 74.1826 49.1128 74.1826 47.7372C74.1826 46.3616 73.0673 45.2469 71.6921 45.2469Z" fill="#E5695A"/>
<path d="M103.631 45.2469H98.3079C96.9323 45.2469 95.8177 46.3616 95.8177 47.7372C95.8177 49.1128 96.9326 50.2274 98.3079 50.2274H103.631C105.007 50.2274 106.121 49.1128 106.121 47.7372C106.121 46.3616 105.007 45.2469 103.631 45.2469Z" fill="#E5695A"/>
<path d="M138.333 118.614L120.384 113.095C120.413 112.553 120.374 112.005 120.246 111.463C119.853 109.799 118.751 108.406 117.222 107.642L106.121 102.092V94.1768C114.426 88.4008 120.271 79.3215 121.733 68.8586H123.213C128.066 68.8586 132.229 65.2524 132.69 60.6481C132.949 58.0679 132.104 55.4921 130.375 53.5806C129.538 52.6552 128.526 51.9231 127.414 51.4114V23.7829C127.414 13.6042 119.133 5.32309 108.954 5.32309C108.941 5.32309 108.768 5.32309 108.533 5.32343C104.05 2.01641 97.4632 0 90.1569 0C74.6017 0 67.4554 3.24061 59.1812 6.99287C54.7609 8.99733 50.1905 11.0699 43.712 12.9644C43.032 13.1633 42.4685 13.6424 42.1634 14.2822C41.8582 14.9217 41.84 15.6612 42.1132 16.3149C42.1889 16.4962 43.3016 19.0791 46.172 22.2167C44.9325 23.7424 42.5864 27.6441 42.5864 35.3163V51.5223C39.721 52.8886 37.6295 55.595 37.3104 58.7795C37.0518 61.3597 37.8955 63.9359 39.6254 65.8481C41.3562 67.7612 43.8282 68.8582 46.4074 68.8582H48.2661C49.7263 79.3245 55.5717 88.4048 63.8788 94.1801V102.091L52.778 107.641C51.249 108.406 50.1467 109.799 49.7539 111.463C49.6261 112.004 49.5866 112.553 49.6154 113.095L31.6663 118.613C23.8699 121.011 18.6315 128.101 18.6315 136.258V167.509C18.6315 168.884 19.7464 169.999 21.1217 169.999C22.497 169.999 23.6119 168.884 23.6119 167.509V136.259C23.6119 130.303 27.4369 125.125 33.1302 123.374L51.8005 117.634L55.0959 122.028L51.352 125.773C48.97 128.154 48.3816 131.779 49.888 134.792L57.0167 149.049H50.2284V146.216C50.2284 144.84 49.1134 143.726 47.7382 143.726C46.3629 143.726 45.2479 144.84 45.2479 146.216V149.049H34.4301C33.0548 149.049 31.9399 150.164 31.9399 151.539V167.509C31.9399 168.884 33.0548 169.999 34.4301 169.999H61.0462C62.4215 169.999 63.5364 168.884 63.5364 167.509V162.088L66.8036 168.623C67.2399 169.495 68.1191 170 69.0329 170C69.4071 170 69.7869 169.915 70.1445 169.736C71.3747 169.121 71.8734 167.625 71.2581 166.395L54.3429 132.564C53.7967 131.472 54.0102 130.158 54.8738 129.294L60.1454 124.022C61.0217 123.146 61.1203 121.758 60.3769 120.767L54.735 113.245C54.5474 112.995 54.571 112.738 54.6019 112.607C54.6327 112.476 54.7264 112.236 55.0063 112.096L64.8144 107.192L71.7386 130.931C72.1237 132.252 73.5056 133.009 74.8264 132.625C76.1469 132.24 76.9049 130.858 76.5198 129.537L75.4284 125.795C78.4904 126.859 81.728 127.413 85.0008 127.413C88.2749 127.413 91.5112 126.861 94.5725 125.797L85.0005 158.615L79.6263 140.189C79.2411 138.868 77.8589 138.11 76.5384 138.495C75.2179 138.881 74.4599 140.263 74.845 141.583L82.6099 168.205C82.92 169.268 83.8938 169.998 85.0005 169.998C86.1071 169.998 87.0813 169.268 87.3911 168.205L105.187 107.192L114.995 112.096C115.275 112.236 115.368 112.476 115.399 112.607C115.43 112.738 115.454 112.995 115.266 113.245L109.624 120.767C108.881 121.758 108.98 123.146 109.856 124.022L115.127 129.294C115.991 130.158 116.204 131.472 115.658 132.564L98.7422 166.395C98.1269 167.625 98.6256 169.121 99.8558 169.736C100.213 169.915 100.594 170 100.968 170C101.881 170 102.761 169.495 103.197 168.623L120.112 134.792C121.619 131.779 121.031 128.155 118.649 125.773L114.904 122.028L118.199 117.635L136.87 123.375C142.563 125.125 146.388 130.303 146.388 136.259V167.509C146.388 168.884 147.503 169.999 148.878 169.999C150.254 169.999 151.368 168.884 151.368 167.509V136.259C151.368 128.102 146.13 121.011 138.333 118.614ZM58.5553 165.019H36.9196V154.029H45.2473V154.201C45.2473 155.576 46.3622 156.691 47.7375 156.691C49.1128 156.691 50.2277 155.576 50.2277 154.201V154.029H58.5553V165.019ZM61.2378 11.5287C69.3058 7.87009 75.6781 4.98044 90.1569 4.98044C99.3441 4.98044 107.554 8.82534 109.254 13.9243C109.689 15.2292 111.098 15.9334 112.404 15.4991C113.708 15.0642 114.413 13.6537 113.978 12.3492C113.835 11.9195 113.664 11.4982 113.471 11.0845C118.688 12.9458 122.434 17.9342 122.434 23.7829V50.5704H119.601C118.039 50.5704 116.768 49.2997 116.768 47.7375V45.0756C116.768 33.5306 108.41 25.0397 108.054 24.6837C107.397 24.027 106.429 23.7916 105.543 24.0698C91.7191 28.4353 72.228 32.1145 57.8783 24.8541C52.7721 22.2702 49.7569 18.9868 48.1711 16.7944C53.4574 15.0572 57.5549 13.1988 61.2378 11.5287ZM101.141 103.275L96.3851 119.582C92.9001 121.449 88.9848 122.433 85.0005 122.433C81.0184 122.433 77.0995 121.45 73.6162 119.584L68.8592 103.275V97.097C73.7417 99.4667 79.2182 100.798 85.0002 100.798C90.7814 100.798 96.2579 99.466 101.141 97.0947V103.275ZM85.0002 95.8174C67.2944 95.8174 52.8899 81.4126 52.8899 63.7068C52.8899 62.3312 51.775 61.2166 50.3997 61.2166C49.0244 61.2166 47.9095 62.3312 47.9095 63.7068V63.8781H46.4074C45.233 63.8781 44.1071 63.3781 43.3185 62.5065C42.5197 61.6236 42.1458 60.4765 42.266 59.2762C42.4755 57.1871 44.4617 55.5505 46.7879 55.5505H50.3997C54.7081 55.5505 58.213 52.0453 58.213 47.7372V38.3381C58.213 36.9625 57.0981 35.8479 55.7228 35.8479C54.3475 35.8479 53.2326 36.9625 53.2326 38.3381V47.7372C53.2326 49.2994 51.9616 50.5701 50.3997 50.5701H47.5668V35.3163C47.5668 29.5221 49.124 26.6407 49.8432 25.619C51.3646 26.819 53.1489 28.0077 55.2374 29.0961C60.8809 32.0375 67.5978 33.6664 75.2013 33.9374C84.1133 34.2578 94.2993 32.6946 105.496 29.2979C107.472 31.6912 111.788 37.7564 111.788 45.0753V47.7372C111.788 52.0456 115.293 55.5505 119.601 55.5505H123.594C124.768 55.5505 125.894 56.0505 126.682 56.9221C127.481 57.805 127.855 58.9518 127.735 60.1521C127.526 62.2416 125.54 63.8781 123.214 63.8781H122.09V63.7327C122.09 62.3578 120.976 61.2431 119.601 61.2425C119.601 61.2425 119.6 61.2425 119.6 61.2425C118.225 61.2425 117.111 62.3561 117.11 63.7307C117.096 81.4232 102.692 95.8174 85.0002 95.8174Z" fill="#E5695A"/>
<path d="M135.571 150.38H131.407V146.216C131.407 144.84 130.292 143.726 128.917 143.726C127.541 143.726 126.426 144.84 126.426 146.216V150.38H122.262C120.887 150.38 119.772 151.494 119.772 152.87C119.772 154.246 120.887 155.36 122.262 155.36H126.426V159.524C126.426 160.899 127.541 162.014 128.917 162.014C130.292 162.014 131.407 160.899 131.407 159.524V155.36H135.571C136.946 155.36 138.061 154.246 138.061 152.87C138.061 151.494 136.945 150.38 135.571 150.38Z" fill="#E5695A"/>
</svg>
