<svg width="48" height="49" viewBox="0 0 48 49" fill="none" xmlns="http://www.w3.org/2000/svg">
<circle cx="24" cy="24.7673" r="24" fill="#FED1CB"/>
<g clip-path="url(#clip0)">
<path d="M31.4988 11.2736L27.6085 11.2673C23.2379 11.2673 20.4134 14.1652 20.4134 18.6504V22.0545H16.5019C16.1639 22.0545 15.8902 22.3285 15.8902 22.6665V27.5986C15.8902 27.9366 16.1642 28.2103 16.5019 28.2103H20.4134V40.6556C20.4134 40.9936 20.6871 41.2673 21.0251 41.2673H26.1285C26.4665 41.2673 26.7402 40.9933 26.7402 40.6556V28.2103H31.3137C31.6517 28.2103 31.9254 27.9366 31.9254 27.5986L31.9273 22.6665C31.9273 22.5042 31.8627 22.3488 31.7481 22.2339C31.6336 22.1191 31.4775 22.0545 31.3152 22.0545H26.7402V19.1688C26.7402 17.7818 27.0707 17.0777 28.8775 17.0777L31.4981 17.0768C31.8358 17.0768 32.1095 16.8027 32.1095 16.465V11.8853C32.1095 11.5479 31.8361 11.2742 31.4988 11.2736Z" fill="#E5695A"/>
</g>
<defs>
<clipPath id="clip0">
<rect x="9" y="11.2673" width="30" height="30" fill="white"/>
</clipPath>
</defs>
</svg>
