<svg width="25" height="25" viewBox="4 0 25 25" fill="none" xmlns="http://www.w3.org/2000/svg">
<g clip-path="url(#clip0)">
<path d="M18.8404 0.416004L15.7282 0.411011C12.2317 0.411011 9.97209 2.72929 9.97209 6.31744V9.0407H6.84288C6.57248 9.0407 6.35352 9.25992 6.35352 9.53033V13.476C6.35352 13.7464 6.57273 13.9654 6.84288 13.9654H9.97209V23.9216C9.97209 24.192 10.1911 24.411 10.4615 24.411H14.5442C14.8146 24.411 15.0336 24.1918 15.0336 23.9216V13.9654H18.6923C18.9627 13.9654 19.1817 13.7464 19.1817 13.476L19.1832 9.53033C19.1832 9.40049 19.1315 9.27615 19.0399 9.18427C18.9482 9.09239 18.8234 9.0407 18.6936 9.0407H15.0336V6.73216C15.0336 5.62258 15.298 5.05931 16.7433 5.05931L18.8399 5.05856C19.11 5.05856 19.329 4.83934 19.329 4.56918V0.905377C19.329 0.635473 19.1103 0.416504 18.8404 0.416004Z" fill="white"/>
</g>
<defs>
<clipPath id="clip0">
<rect x="0.841309" y="0.411011" width="24" height="24" fill="white"/>
</clipPath>
</defs>
</svg>
