<svg width="35" height="35" viewBox="0 0 35 35" fill="none" xmlns="http://www.w3.org/2000/svg">
<g clip-path="url(#clip0)">
<path d="M12.7415 20.0101H18.0535C17.121 22.6462 14.5957 24.5363 11.6392 24.5145C8.05192 24.488 5.08572 21.6183 4.94645 18.0336C4.79717 14.191 7.87994 11.0174 11.6899 11.0174C13.4319 11.0174 15.0217 11.6811 16.2202 12.7688C16.504 13.0264 16.9361 13.0281 17.2153 12.7653L19.1664 10.929C19.4715 10.6418 19.4726 10.1568 19.1684 9.86859C17.2677 8.06793 14.7181 6.94556 11.9064 6.89066C5.90944 6.77358 0.854543 11.6905 0.812771 17.6885C0.770627 23.7315 5.65665 28.6434 11.6899 28.6434C17.4919 28.6434 22.2317 24.1005 22.5492 18.3778C22.5577 18.3061 22.5632 15.8813 22.5632 15.8813H12.7415C12.3389 15.8813 12.0126 16.2076 12.0126 16.6102V19.2812C12.0126 19.6837 12.339 20.0101 12.7415 20.0101Z" fill="white"/>
<path d="M31.5637 16.1238V13.5141C31.5637 13.1613 31.2778 12.8754 30.925 12.8754H28.7285C28.3757 12.8754 28.0898 13.1613 28.0898 13.5141V16.1238H25.4801C25.1273 16.1238 24.8413 16.4098 24.8413 16.7626V18.9591C24.8413 19.3119 25.1273 19.5978 25.4801 19.5978H28.0898V22.2075C28.0898 22.5603 28.3757 22.8463 28.7285 22.8463H30.925C31.2778 22.8463 31.5637 22.5603 31.5637 22.2075V19.5978H34.1734C34.5262 19.5978 34.8122 19.3119 34.8122 18.9591V16.7626C34.8122 16.4098 34.5262 16.1238 34.1734 16.1238H31.5637Z" fill="white"/>
</g>
<defs>
<clipPath id="clip0">
<rect x="0.8125" y="0.765991" width="54" height="54" fill="white"/>
</clipPath>
</defs>
</svg>
