<svg width="48" height="48" viewBox="0 0 48 48" fill="none" xmlns="http://www.w3.org/2000/svg">
<circle cx="24" cy="24" r="24" fill="#FED1CB"/>
<g clip-path="url(#clip0)">
<path d="M29.625 8.76733H18.375C13.1981 8.76733 9 12.9655 9 18.1423V29.3923C9 34.5692 13.1981 38.7673 18.375 38.7673H29.625C34.8019 38.7673 39 34.5692 39 29.3923V18.1423C39 12.9655 34.8019 8.76733 29.625 8.76733ZM36.1875 29.3923C36.1875 33.0111 33.2437 35.9548 29.625 35.9548H18.375C14.7562 35.9548 11.8125 33.0111 11.8125 29.3923V18.1423C11.8125 14.5236 14.7562 11.5798 18.375 11.5798H29.625C33.2437 11.5798 36.1875 14.5236 36.1875 18.1423V29.3923Z" fill="#E5695A"/>
<path d="M24 16.2673C19.8581 16.2673 16.5 19.6255 16.5 23.7673C16.5 27.9092 19.8581 31.2673 24 31.2673C28.1419 31.2673 31.5 27.9092 31.5 23.7673C31.5 19.6255 28.1419 16.2673 24 16.2673ZM24 28.4548C21.4162 28.4548 19.3125 26.3511 19.3125 23.7673C19.3125 21.1817 21.4162 19.0798 24 19.0798C26.5837 19.0798 28.6875 21.1817 28.6875 23.7673C28.6875 26.3511 26.5837 28.4548 24 28.4548Z" fill="#E5695A"/>
<path d="M32.0625 16.7041C32.6144 16.7041 33.0619 16.2566 33.0619 15.7047C33.0619 15.1528 32.6144 14.7053 32.0625 14.7053C31.5105 14.7053 31.0631 15.1528 31.0631 15.7047C31.0631 16.2566 31.5105 16.7041 32.0625 16.7041Z" fill="#E5695A"/>
</g>
<defs>
<clipPath id="clip0">
<rect x="9" y="8.76733" width="30" height="30" fill="white"/>
</clipPath>
</defs>
</svg>
