<svg width="25" height="33" viewBox="0 0 25 33" fill="none" xmlns="http://www.w3.org/2000/svg">
<path d="M3.04264 19.164L3.05132 19.1757L12.25 31.4956L21.4487 19.1757L21.4574 19.164L21.4665 19.1527C24.8789 14.9335 24.4205 7.85364 20.4021 4.12705C15.9062 -0.0423205 8.59456 -0.0423819 4.09794 4.12705L3.04264 19.164ZM3.04264 19.164L3.03351 19.1527M3.04264 19.164L3.03351 19.1527M3.03351 19.1527C-0.378872 14.9335 0.0795212 7.85369 4.0979 4.12709L3.03351 19.1527ZM7.5757 11.4995C7.5757 14.0372 9.77591 15.9994 12.3693 15.9994C14.9627 15.9994 17.1629 14.0372 17.1629 11.4995C17.1629 8.96183 14.9627 6.99956 12.3693 6.99956C9.77591 6.99956 7.5757 8.96183 7.5757 11.4995Z" stroke="#069999" stroke-width="1.5"/>
</svg>
