<svg width="25" height="35" viewBox="0 0 25 35" fill="none" xmlns="http://www.w3.org/2000/svg">
<path d="M3.05878 20.5641L3.05037 20.5524L3.04152 20.5411C1.34423 18.3671 0.586534 15.4371 0.779292 12.5365C0.972031 9.63619 2.10998 6.8392 4.1075 4.92021C8.60151 0.603563 15.8992 0.603614 20.3925 4.92017C22.39 6.83916 23.528 9.63618 23.7207 12.5365C23.9135 15.4371 23.1558 18.3671 21.4585 20.5411L21.4496 20.5524L21.4412 20.5641L12.25 33.3159L3.05878 20.5641ZM7.5757 12.5861C7.5757 15.174 9.75031 17.2207 12.3693 17.2207C14.9883 17.2207 17.1629 15.174 17.1629 12.5861C17.1629 9.99823 14.9883 7.95154 12.3693 7.95154C9.75031 7.95154 7.5757 9.99823 7.5757 12.5861Z" stroke="#069999" stroke-width="1.5"/>
</svg>
