<svg width="185" height="54" viewBox="0 0 185 54" fill="none" xmlns="http://www.w3.org/2000/svg">
    <path d="M64.9853 4.57006V30.7759C64.9853 32.154 65.4491 32.7534 66.6598 32.7534C67.0765 32.7534 67.6346 32.5666 67.9098 32.5666C68.8375 32.5666 69.3485 35.5095 69.3485 35.8754C69.3485 37.9931 66.3296 38.1254 64.8909 38.1254C60.5277 38.1254 58.1142 35.782 58.1142 30.6747V4.57006C58.1142 3.60466 58.9475 3.0986 60.8972 3.0986H62.1944C64.1519 3.0986 64.9853 3.60466 64.9853 4.57006Z" fill="#069999"/>
    <path d="M91.9585 15.1038V29.6782C91.9585 34.4118 92.5167 35.3772 92.5167 36.3426C92.5167 37.4481 88.4758 37.814 87.3201 37.814C85.8343 37.814 85.7399 35.8832 85.4648 34.6453C84.1204 36.3893 81.5654 38.141 78.5466 38.141C73.9003 38.141 71.7227 35.7976 71.7227 30.6903V15.1038C71.7227 14.1384 72.556 13.6324 74.5057 13.6324H75.8028C77.7525 13.6324 78.5859 14.1384 78.5859 15.1038V29.6782C78.5859 31.4689 79.3327 32.5277 81.3689 32.5277C83.2714 32.5277 84.5293 30.9161 85.0796 29.8651V15.1038C85.0796 14.1384 85.9129 13.6324 87.8626 13.6324H89.1598C91.1252 13.6324 91.9585 14.1384 91.9585 15.1038Z" fill="#069999"/>
    <path d="M112.249 16.0225C112.249 17.0346 111.133 19.6583 110.253 19.6583C109.742 19.6583 108.444 18.6929 106.259 18.6929C104.726 18.6929 103.798 19.1523 103.798 20.3045C103.798 22.3287 106.581 22.7881 109.042 23.9403C111.133 24.9524 113.083 26.6497 113.083 30.2855C113.083 34.9723 109.789 38.1488 103.987 38.1488C100.504 38.1488 96.2824 36.9965 96.2824 35.019C96.2824 33.8201 97.8154 31.4766 98.7431 31.4766C99.4428 31.4766 100.968 32.7612 103.429 32.7612C105.19 32.7612 106.117 32.0683 106.117 30.8305C106.117 29.0865 104.215 28.6272 102.124 27.7941C99.8516 26.9221 96.8327 25.4974 96.8327 20.8962C96.8327 16.1159 100.127 13.3599 105.284 13.3599C107.981 13.3521 112.249 14.0917 112.249 16.0225Z" fill="#069999"/>
    <path d="M134.396 15.5631C134.396 16.295 133.515 18.0467 132.91 18.0467C132.815 18.0467 132.674 17.9533 132.399 17.8599C131.565 17.4939 129.844 16.7543 127.336 16.7543C123.248 16.7543 120.606 19.1445 120.606 25.5363C120.606 31.9749 122.556 34.731 127.8 34.731C130.402 34.731 132.21 33.9524 133.043 33.532C133.319 33.4386 133.507 33.3452 133.554 33.3452C134.207 33.3452 135.135 35.0502 135.135 35.6886C135.135 36.7474 131.888 38.032 127.847 38.032C120.323 38.032 116.424 34.4896 116.424 25.622C116.424 16.0147 122.092 13.4377 127.43 13.4377C131.007 13.4455 134.396 14.4576 134.396 15.5631Z" fill="#069999"/>
    <path d="M144.238 4.20416V31.3287C144.238 34.0848 145.402 34.731 146.746 34.731C148.091 34.731 148.326 34.4974 148.743 34.4974C149.396 34.4974 149.718 36.2881 149.718 36.6618C149.718 37.8997 147.58 38.0398 146.33 38.0398C144.01 38.0398 140.339 37.0277 140.339 31.6946V4.20416C140.339 3.55796 140.897 3.19205 142.194 3.19205H142.383C143.68 3.19205 144.238 3.55796 144.238 4.20416Z" fill="#069999"/>
    <path d="M158.625 4.20416V6.9135C158.625 7.55969 158.067 7.92561 156.77 7.92561H156.212C154.914 7.92561 154.356 7.55969 154.356 6.9135V4.20416C154.356 3.55796 154.914 3.19205 156.212 3.19205H156.77C158.067 3.19205 158.625 3.55796 158.625 4.20416ZM158.444 14.6445V36.8486C158.444 37.4948 157.886 37.8607 156.589 37.8607H156.4C155.103 37.8607 154.545 37.4948 154.545 36.8486V14.6445C154.545 13.9983 155.103 13.6324 156.4 13.6324H156.589C157.886 13.6324 158.444 13.9983 158.444 14.6445Z" fill="#069999"/>
    <path d="M185.001 20.8962V36.8486C185.001 37.4948 184.443 37.8607 183.146 37.8607H182.957C181.66 37.8607 181.102 37.4948 181.102 36.8486V21.2621C181.102 18.4593 179.38 16.801 176.369 16.801C174.278 16.801 172.053 18.0389 170.52 20.0164V36.8408C170.52 37.487 169.962 37.8529 168.665 37.8529H168.476C167.179 37.8529 166.62 37.487 166.62 36.8408V20.7093C166.62 16.9412 166.062 15.1427 166.062 14.9169C166.062 14.045 167.965 13.8581 168.57 13.8581C169.687 13.8581 169.915 15.6955 170.198 16.8945C172.147 14.7301 174.844 13.4455 177.438 13.4455C182.163 13.4455 185.001 16.2483 185.001 20.8962Z" fill="#069999"/>
    <path d="M39.1676 31.7491H32.2258V12.8382C32.2258 11.4369 31.817 6.87457 26.5733 6.87457C24.7415 6.87457 20.9287 6.87457 20.9287 13.5156H13.9947C13.9947 5.05277 18.6959 0 26.5812 0C36.5419 0 39.1755 8.40052 39.1755 12.8382V31.7491H39.1676Z" fill="#E5695A"/>
    <path d="M12.8626 39.7682C11.8563 39.7682 6.90349 39.5813 3.34216 36.0234C1.11732 33.7967 -0.0383378 30.737 0.000970334 27.1635C0.0795867 19.4325 5.04028 14.8313 13.2793 14.8313C13.3579 14.8313 13.4365 14.8313 13.5151 14.8313L27.5324 14.8703L27.5088 21.7448L13.4679 21.7059C7.7604 21.6436 6.97424 24.3296 6.94279 27.2336C6.92707 28.9775 7.35946 30.2699 8.27141 31.1808C9.63147 32.5355 11.8563 32.8936 12.8547 32.8936H12.8626L12.8783 39.7682C12.8705 39.7682 12.8626 39.7682 12.8626 39.7682Z" fill="#E5695A"/>
    <path d="M26.3846 54C23.1456 54 20.2447 52.8633 18.0434 50.7068C15.0481 47.7794 13.9868 43.6453 13.9868 40.7414L13.9947 22.8192H20.9365L20.9286 40.7414C20.9286 42.244 21.5497 44.4706 22.9255 45.8097C23.8453 46.7128 25.0403 47.1566 26.534 47.1177H31.0466V53.9922H26.5812C26.5104 54 26.4475 54 26.3846 54Z" fill="#E5695A"/>
    <path d="M32.1708 54V47.1254C32.1865 47.1254 32.2101 47.1254 32.2258 47.1254V32.8858H41.872C43.2871 32.8858 47.8941 32.481 47.8941 27.2881C47.8941 22.0952 43.1299 21.3166 40.2918 21.3166V14.442C47.5324 14.442 54.8359 18.4126 54.8359 27.2881C54.8359 37.1523 46.3532 39.7604 41.872 39.7604H39.1676V49.2742C39.1676 51.5632 37.328 54 32.1708 54Z" fill="#069999"/>
</svg>
