<svg width="55" height="54" viewBox="0 0 55 54" fill="none" xmlns="http://www.w3.org/2000/svg">
    <path d="M39.1676 31.7491H32.2258V12.8382C32.2258 11.4369 31.817 6.87457 26.5733 6.87457C24.7415 6.87457 20.9287 6.87457 20.9287 13.5156H13.9947C13.9947 5.05277 18.6959 0 26.5812 0C36.5419 0 39.1755 8.40052 39.1755 12.8382V31.7491H39.1676Z" fill="#E5695A"/>
    <path d="M12.8626 39.7682C11.8563 39.7682 6.90349 39.5813 3.34216 36.0234C1.11732 33.7967 -0.0383378 30.737 0.000970334 27.1635C0.0795867 19.4325 5.04028 14.8313 13.2793 14.8313C13.3579 14.8313 13.4365 14.8313 13.5151 14.8313L27.5324 14.8703L27.5088 21.7448L13.4679 21.7059C7.7604 21.6436 6.97424 24.3296 6.94279 27.2336C6.92707 28.9775 7.35946 30.2699 8.27141 31.1808C9.63147 32.5355 11.8563 32.8936 12.8547 32.8936H12.8626L12.8783 39.7682C12.8705 39.7682 12.8626 39.7682 12.8626 39.7682Z" fill="#E5695A"/>
    <path d="M26.3846 54C23.1456 54 20.2447 52.8633 18.0434 50.7068C15.0481 47.7794 13.9868 43.6453 13.9868 40.7414L13.9947 22.8192H20.9365L20.9286 40.7414C20.9286 42.244 21.5497 44.4706 22.9255 45.8097C23.8453 46.7128 25.0403 47.1566 26.534 47.1177H31.0466V53.9922H26.5812C26.5104 54 26.4475 54 26.3846 54Z" fill="#E5695A"/>
    <path d="M32.1708 54V47.1254C32.1865 47.1254 32.2101 47.1254 32.2258 47.1254V32.8858H41.872C43.2871 32.8858 47.8941 32.481 47.8941 27.2881C47.8941 22.0952 43.1299 21.3166 40.2918 21.3166V14.442C47.5324 14.442 54.8359 18.4126 54.8359 27.2881C54.8359 37.1523 46.3532 39.7604 41.872 39.7604H39.1676V49.2742C39.1676 51.5632 37.328 54 32.1708 54Z" fill="#069999"/>
</svg>
