<svg width="185" height="54" viewBox="0 0 185 54" fill="none" xmlns="http://www.w3.org/2000/svg">
<g clip-path="url(#clip0)">
<path d="M64.9843 4.57006V30.7759C64.9843 32.154 65.4481 32.7534 66.6588 32.7534C67.0755 32.7534 67.6337 32.5666 67.9088 32.5666C68.8365 32.5666 69.3475 35.5095 69.3475 35.8754C69.3475 37.9931 66.3286 38.1254 64.89 38.1254C60.5267 38.1254 58.1132 35.782 58.1132 30.6747V4.57006C58.1132 3.60466 58.9466 3.0986 60.8962 3.0986H62.1934C64.151 3.0986 64.9843 3.60466 64.9843 4.57006Z" fill="#069999"/>
<path d="M91.9575 15.1038V29.6782C91.9575 34.4118 92.5157 35.3772 92.5157 36.3426C92.5157 37.4481 88.4748 37.814 87.3192 37.814C85.8333 37.814 85.739 35.8832 85.4638 34.6453C84.1195 36.3893 81.5644 38.141 78.5456 38.141C73.8994 38.141 71.7217 35.7976 71.7217 30.6903V15.1038C71.7217 14.1384 72.555 13.6324 74.5047 13.6324H75.8019C77.7515 13.6324 78.5849 14.1384 78.5849 15.1038V29.6782C78.5849 31.4689 79.3317 32.5277 81.3679 32.5277C83.2704 32.5277 84.5283 30.9161 85.0786 29.8651V15.1038C85.0786 14.1384 85.9119 13.6324 87.8616 13.6324H89.1588C91.1242 13.6324 91.9575 14.1384 91.9575 15.1038Z" fill="#069999"/>
<path d="M112.248 16.0225C112.248 17.0346 111.132 19.6583 110.252 19.6583C109.741 19.6583 108.443 18.6929 106.258 18.6929C104.725 18.6929 103.797 19.1523 103.797 20.3045C103.797 22.3287 106.58 22.7881 109.041 23.9403C111.132 24.9524 113.082 26.6497 113.082 30.2855C113.082 34.9723 109.788 38.1488 103.986 38.1488C100.503 38.1488 96.2814 36.9965 96.2814 35.019C96.2814 33.8201 97.8144 31.4766 98.7421 31.4766C99.4418 31.4766 100.967 32.7612 103.428 32.7612C105.189 32.7612 106.116 32.0683 106.116 30.8305C106.116 29.0865 104.214 28.6272 102.123 27.7941C99.8506 26.9221 96.8317 25.4974 96.8317 20.8962C96.8317 16.1159 100.126 13.3599 105.283 13.3599C107.98 13.3521 112.248 14.0917 112.248 16.0225Z" fill="#069999"/>
<path d="M134.395 15.5631C134.395 16.295 133.514 18.0467 132.909 18.0467C132.814 18.0467 132.673 17.9533 132.398 17.8599C131.564 17.4939 129.843 16.7543 127.335 16.7543C123.247 16.7543 120.605 19.1445 120.605 25.5363C120.605 31.9749 122.555 34.731 127.799 34.731C130.401 34.731 132.209 33.9524 133.042 33.532C133.318 33.4386 133.506 33.3452 133.553 33.3452C134.206 33.3452 135.134 35.0502 135.134 35.6886C135.134 36.7474 131.887 38.032 127.846 38.032C120.322 38.032 116.423 34.4896 116.423 25.622C116.423 16.0147 122.091 13.4377 127.429 13.4377C131.006 13.4455 134.395 14.4576 134.395 15.5631Z" fill="#069999"/>
<path d="M144.237 4.20416V31.3287C144.237 34.0848 145.401 34.731 146.745 34.731C148.09 34.731 148.325 34.4974 148.742 34.4974C149.395 34.4974 149.717 36.2881 149.717 36.6618C149.717 37.8997 147.579 38.0398 146.329 38.0398C144.009 38.0398 140.338 37.0277 140.338 31.6946V4.20416C140.338 3.55796 140.896 3.19205 142.193 3.19205H142.382C143.679 3.19205 144.237 3.55796 144.237 4.20416Z" fill="#069999"/>
<path d="M158.624 4.20416V6.9135C158.624 7.55969 158.066 7.92561 156.769 7.92561H156.211C154.914 7.92561 154.355 7.55969 154.355 6.9135V4.20416C154.355 3.55796 154.914 3.19205 156.211 3.19205H156.769C158.066 3.19205 158.624 3.55796 158.624 4.20416ZM158.443 14.6445V36.8486C158.443 37.4948 157.885 37.8607 156.588 37.8607H156.399C155.102 37.8607 154.544 37.4948 154.544 36.8486V14.6445C154.544 13.9983 155.102 13.6324 156.399 13.6324H156.588C157.885 13.6324 158.443 13.9983 158.443 14.6445Z" fill="#069999"/>
<path d="M185 20.8962V36.8486C185 37.4948 184.442 37.8607 183.145 37.8607H182.956C181.659 37.8607 181.101 37.4948 181.101 36.8486V21.2621C181.101 18.4593 179.379 16.801 176.368 16.801C174.277 16.801 172.052 18.0389 170.519 20.0164V36.8408C170.519 37.487 169.961 37.8529 168.664 37.8529H168.475C167.178 37.8529 166.62 37.487 166.62 36.8408V20.7093C166.62 16.9412 166.061 15.1427 166.061 14.9169C166.061 14.045 167.964 13.8581 168.569 13.8581C169.686 13.8581 169.914 15.6955 170.197 16.8945C172.146 14.7301 174.843 13.4455 177.437 13.4455C182.162 13.4455 185 16.2483 185 20.8962Z" fill="#069999"/>
<path d="M39.1667 31.7491H32.2248V12.8382C32.2248 11.4369 31.816 6.87457 26.5723 6.87457C24.7406 6.87457 20.9277 6.87457 20.9277 13.5156H13.9937C13.9937 5.05277 18.695 0 26.5802 0C36.5409 0 39.1745 8.40052 39.1745 12.8382V31.7491H39.1667Z" fill="#E5695A"/>
<path d="M12.8616 39.7682C11.8553 39.7682 6.90251 39.5813 3.34119 36.0234C1.11635 33.7967 -0.0393144 30.737 -6.22816e-06 27.1635C0.0786101 19.4325 5.0393 14.8313 13.2783 14.8313C13.3569 14.8313 13.4355 14.8313 13.5141 14.8313L27.5314 14.8703L27.5079 21.7448L13.467 21.7059C7.75943 21.6436 6.97326 24.3296 6.94182 27.2336C6.92609 28.9775 7.35848 30.2699 8.27043 31.1808C9.6305 32.5355 11.8553 32.8936 12.8538 32.8936H12.8616L12.8773 39.7682C12.8695 39.7682 12.8616 39.7682 12.8616 39.7682Z" fill="#E5695A"/>
<path d="M26.3836 54C23.1446 54 20.2437 52.8633 18.0424 50.7068C15.0472 47.7794 13.9858 43.6453 13.9858 40.7414L13.9937 22.8192H20.9355L20.9277 40.7414C20.9277 42.244 21.5487 44.4706 22.9245 45.8097C23.8443 46.7128 25.0393 47.1566 26.533 47.1177H31.0456V53.9922H26.5802C26.5094 54 26.4465 54 26.3836 54Z" fill="#E5695A"/>
<path d="M32.1698 54V47.1254C32.1855 47.1254 32.2091 47.1254 32.2248 47.1254V32.8858H41.8711C43.2862 32.8858 47.8931 32.481 47.8931 27.2881C47.8931 22.0952 43.1289 21.3166 40.2909 21.3166V14.442C47.5314 14.442 54.8349 18.4126 54.8349 27.2881C54.8349 37.1523 46.3522 39.7604 41.8711 39.7604H39.1667V49.2742C39.1667 51.5632 37.327 54 32.1698 54Z" fill="#069999"/>
</g>
<defs>
<clipPath id="clip0">
<rect width="185" height="54" fill="white"/>
</clipPath>
</defs>
</svg>
