<svg width="345" height="54" viewBox="0 0 345 54" fill="none" xmlns="http://www.w3.org/2000/svg">
    <path d="M202.202 22.2271C200.132 22.2271 197.936 23.2351 197.936 26.9971C197.936 30.4711 199.448 31.8571 202.364 31.8571C203.93 31.8571 205.19 31.3531 205.19 30.9391C205.19 30.6871 204.83 30.0211 204.578 30.0211C204.56 30.0211 204.488 30.0571 204.38 30.0931C204.056 30.2551 203.354 30.5611 202.346 30.5611C200.312 30.5611 199.556 29.4811 199.556 26.9611C199.556 24.4591 200.582 23.5231 202.166 23.5231C203.138 23.5231 203.804 23.8111 204.128 23.9551C204.236 23.9911 204.29 24.0271 204.326 24.0271C204.56 24.0271 204.902 23.3431 204.902 23.0551C204.902 22.6231 203.588 22.2271 202.202 22.2271ZM208.004 18.2131H207.932C207.428 18.2131 207.212 18.3571 207.212 18.6091V29.3731C207.212 31.4611 208.634 31.8571 209.534 31.8571C210.02 31.8571 210.848 31.8031 210.848 31.3171C210.848 31.1731 210.722 30.4711 210.47 30.4711C210.308 30.4711 210.218 30.5611 209.696 30.5611C209.174 30.5611 208.724 30.3091 208.724 29.2291V18.6091C208.724 18.3571 208.508 18.2131 208.004 18.2131ZM218.838 22.2991H218.766C218.262 22.2991 218.046 22.4431 218.046 22.6951V29.2831C217.452 30.0571 216.588 30.5431 215.778 30.5431C214.608 30.5431 213.942 29.8951 213.942 28.7971V22.6951C213.942 22.4431 213.726 22.2991 213.222 22.2991H213.15C212.646 22.2991 212.43 22.4431 212.43 22.6951V28.9411C212.43 30.7591 213.528 31.8571 215.364 31.8571C216.372 31.8571 217.416 31.3531 218.172 30.5071C218.28 31.0111 218.37 31.7671 218.802 31.7671C219.036 31.7671 219.774 31.6951 219.774 31.3531C219.774 31.2631 219.558 30.5611 219.558 29.0851V22.6951C219.558 22.4431 219.342 22.2991 218.838 22.2991ZM223.422 18.2131H223.35C222.846 18.2131 222.63 18.3571 222.63 18.6091V31.3891C222.63 31.6411 222.792 31.7851 223.17 31.7851H223.242C223.494 31.7851 223.656 31.7311 223.728 31.5691C223.872 31.2091 223.962 30.8671 224.016 30.5071C224.898 31.4251 225.852 31.8571 226.878 31.8571C229.038 31.8571 230.37 29.8411 230.37 27.0331C230.37 23.9191 228.858 22.2271 226.716 22.2271C225.6 22.2271 224.844 22.6051 224.142 23.1451V18.6091C224.142 18.3571 223.926 18.2131 223.422 18.2131ZM226.374 23.5591C227.976 23.5951 228.786 24.7651 228.786 26.9071C228.786 29.2291 227.994 30.5431 226.572 30.5431C225.78 30.5431 224.88 30.1111 224.142 29.3011V24.3691C224.79 23.8291 225.6 23.5591 226.374 23.5591ZM236.532 22.2271C233.778 22.2271 232.338 23.9191 232.338 27.1051C232.338 30.3271 233.76 31.8571 236.748 31.8571C238.566 31.8571 239.988 31.1371 239.988 30.7051C239.988 30.5071 239.61 29.8051 239.358 29.8051C239.178 29.8051 238.296 30.5611 236.73 30.5611C234.948 30.5611 234.102 29.6611 233.958 27.6631H239.646C239.862 27.6631 240.24 27.1411 240.24 26.9251C240.24 23.8651 238.998 22.2271 236.532 22.2271ZM236.478 23.5231C237.918 23.5231 238.638 24.4771 238.638 26.3671H233.958C234.084 24.4771 234.912 23.5231 236.478 23.5231ZM253.331 18.2131H253.259C252.755 18.2131 252.539 18.3571 252.539 18.6091V23.1451C251.837 22.6051 251.081 22.2271 249.965 22.2271C247.823 22.2271 246.311 23.9191 246.311 27.0511C246.311 29.8411 247.643 31.8571 249.803 31.8571C250.829 31.8571 251.783 31.4251 252.665 30.5071C252.773 31.0111 252.863 31.7671 253.295 31.7671C253.529 31.7671 254.267 31.6951 254.267 31.3531C254.267 31.2631 254.051 30.5611 254.051 29.0851V18.6091C254.051 18.3571 253.835 18.2131 253.331 18.2131ZM250.325 23.5591C251.135 23.5591 251.891 23.8291 252.539 24.3691V29.3011C251.801 30.1111 250.901 30.5431 250.109 30.5431C248.687 30.5431 247.895 29.2291 247.895 26.9071C247.895 24.7651 248.705 23.5951 250.325 23.5591ZM260.737 22.2271C257.983 22.2271 256.543 23.9191 256.543 27.1051C256.543 30.3271 257.965 31.8571 260.953 31.8571C262.771 31.8571 264.193 31.1371 264.193 30.7051C264.193 30.5071 263.815 29.8051 263.563 29.8051C263.383 29.8051 262.501 30.5611 260.935 30.5611C259.153 30.5611 258.307 29.6611 258.163 27.6631H263.851C264.067 27.6631 264.445 27.1411 264.445 26.9251C264.445 23.8651 263.203 22.2271 260.737 22.2271ZM260.683 23.5231C262.123 23.5231 262.843 24.4771 262.843 26.3671H258.163C258.289 24.4771 259.117 23.5231 260.683 23.5231ZM274.782 22.2271C272.712 22.2271 270.516 23.2351 270.516 26.9971C270.516 30.4711 272.028 31.8571 274.944 31.8571C276.51 31.8571 277.77 31.3531 277.77 30.9391C277.77 30.6871 277.41 30.0211 277.158 30.0211C277.14 30.0211 277.068 30.0571 276.96 30.0931C276.636 30.2551 275.934 30.5611 274.926 30.5611C272.892 30.5611 272.136 29.4811 272.136 26.9611C272.136 24.4591 273.162 23.5231 274.746 23.5231C275.718 23.5231 276.384 23.8111 276.708 23.9551C276.816 23.9911 276.87 24.0271 276.906 24.0271C277.14 24.0271 277.482 23.3431 277.482 23.0551C277.482 22.6231 276.168 22.2271 274.782 22.2271ZM283.482 22.2271C280.8 22.2271 279.306 23.9731 279.306 27.0871C279.306 30.1831 280.764 31.8571 283.482 31.8571C286.164 31.8571 287.568 30.2011 287.568 27.0871C287.568 23.9551 286.128 22.2271 283.482 22.2271ZM283.428 23.5231C285.192 23.5231 286.002 24.6571 286.002 27.0511C286.002 29.4451 285.192 30.5611 283.428 30.5611C281.664 30.5611 280.89 29.4451 280.89 27.0511C280.89 24.6391 281.682 23.5231 283.428 23.5231ZM294.306 22.2271C293.298 22.2271 292.254 22.7311 291.498 23.5771C291.39 23.1091 291.3 22.3891 290.868 22.3891C290.634 22.3891 289.896 22.4611 289.896 22.8031C289.896 22.8931 290.112 23.5951 290.112 25.0711V31.3891C290.112 31.6411 290.328 31.7851 290.832 31.7851H290.904C291.408 31.7851 291.624 31.6411 291.624 31.3891V24.8011C292.218 24.0271 293.082 23.5411 293.892 23.5411C295.062 23.5411 295.728 24.1891 295.728 25.2871V31.3891C295.728 31.6411 295.944 31.7851 296.448 31.7851H296.52C297.024 31.7851 297.24 31.6411 297.24 31.3891V25.1431C297.24 23.3251 296.142 22.2271 294.306 22.2271ZM302.418 22.2091C300.672 22.2091 299.43 23.3071 299.43 24.8191C299.43 26.1691 299.988 26.9431 301.932 27.5191C303.282 27.9151 303.732 28.3291 303.732 29.1391C303.732 30.1291 303.12 30.5971 301.968 30.5971C300.69 30.5971 299.97 29.8771 299.844 29.8771C299.592 29.8771 299.214 30.5791 299.214 30.7771C299.214 31.1911 300.438 31.9111 302.076 31.9111C303.858 31.9111 305.262 30.7231 305.262 29.1031C305.262 27.4651 304.596 26.8711 302.382 26.1871C301.374 25.8811 300.978 25.4311 300.978 24.6211C300.978 23.9191 301.68 23.4871 302.58 23.4871C303.552 23.4871 304.128 23.9551 304.218 23.9551C304.452 23.9551 304.794 23.2711 304.794 22.9831C304.794 22.5871 303.642 22.2091 302.418 22.2091ZM313.778 22.2991H313.706C313.202 22.2991 312.986 22.4431 312.986 22.6951V29.2831C312.392 30.0571 311.528 30.5431 310.718 30.5431C309.548 30.5431 308.882 29.8951 308.882 28.7971V22.6951C308.882 22.4431 308.666 22.2991 308.162 22.2991H308.09C307.586 22.2991 307.37 22.4431 307.37 22.6951V28.9411C307.37 30.7591 308.468 31.8571 310.304 31.8571C311.312 31.8571 312.356 31.3531 313.112 30.5071C313.22 31.0111 313.31 31.7671 313.742 31.7671C313.976 31.7671 314.714 31.6951 314.714 31.3531C314.714 31.2631 314.498 30.5611 314.498 29.0851V22.6951C314.498 22.4431 314.282 22.2991 313.778 22.2991ZM318.307 18.2131H318.235C317.731 18.2131 317.515 18.3571 317.515 18.6091V29.3731C317.515 31.4611 318.937 31.8571 319.837 31.8571C320.323 31.8571 321.151 31.8031 321.151 31.3171C321.151 31.1731 321.025 30.4711 320.773 30.4711C320.611 30.4711 320.521 30.5611 319.999 30.5611C319.477 30.5611 319.027 30.3091 319.027 29.2291V18.6091C319.027 18.3571 318.811 18.2131 318.307 18.2131ZM324.281 20.0491H324.101C323.723 20.0491 323.543 20.1931 323.525 20.4451L323.309 22.3351H322.409C322.157 22.3351 322.049 22.4971 322.049 22.8751V23.0911C322.049 23.4691 322.157 23.6311 322.409 23.6311H323.309V29.3731C323.309 31.4611 324.731 31.8571 325.631 31.8571C326.117 31.8571 326.945 31.8031 326.945 31.3171C326.945 31.1731 326.819 30.4711 326.567 30.4711C326.405 30.4711 326.315 30.5611 325.793 30.5611C325.271 30.5611 324.821 30.3091 324.821 29.2291V23.6311H326.333C326.585 23.6311 326.693 23.4691 326.693 23.0911V22.8751C326.693 22.4971 326.585 22.3351 326.333 22.3351H324.821V20.4451C324.821 20.1931 324.659 20.0491 324.281 20.0491ZM332.359 22.2271C330.559 22.2271 328.975 22.9111 328.975 23.3791C328.975 23.5771 329.353 24.2791 329.605 24.2791C329.785 24.2791 330.775 23.5231 332.413 23.5231C333.907 23.5231 334.393 24.2251 334.393 25.0351V25.8811C331.639 25.9171 328.417 26.1151 328.417 29.1571C328.417 31.0111 329.749 31.8571 331.495 31.8571C332.845 31.8571 333.835 31.2631 334.519 30.5071C334.627 31.0111 334.717 31.7671 335.149 31.7671C335.383 31.7671 336.121 31.6951 336.121 31.3531C336.121 31.2631 335.905 30.5611 335.905 29.0851V25.0531C335.905 23.2711 334.591 22.2271 332.359 22.2271ZM334.393 27.1771V29.3011C333.673 29.9491 332.881 30.5431 331.567 30.5431C330.559 30.5431 330.037 30.0211 330.037 29.0671C330.037 27.1951 332.521 27.1951 334.393 27.1771ZM341.178 22.2091C339.432 22.2091 338.19 23.3071 338.19 24.8191C338.19 26.1691 338.748 26.9431 340.692 27.5191C342.042 27.9151 342.492 28.3291 342.492 29.1391C342.492 30.1291 341.88 30.5971 340.728 30.5971C339.45 30.5971 338.73 29.8771 338.604 29.8771C338.352 29.8771 337.974 30.5791 337.974 30.7771C337.974 31.1911 339.198 31.9111 340.836 31.9111C342.618 31.9111 344.022 30.7231 344.022 29.1031C344.022 27.4651 343.356 26.8711 341.142 26.1871C340.134 25.8811 339.738 25.4311 339.738 24.6211C339.738 23.9191 340.44 23.4871 341.34 23.4871C342.312 23.4871 342.888 23.9551 342.978 23.9551C343.212 23.9551 343.554 23.2711 343.554 22.9831C343.554 22.5871 342.402 22.2091 341.178 22.2091Z" fill="#99CDCD"/>
    <g clip-path="url(#clip0)">
        <path d="M64.9843 4.57006V30.7759C64.9843 32.154 65.4481 32.7534 66.6588 32.7534C67.0755 32.7534 67.6337 32.5666 67.9088 32.5666C68.8365 32.5666 69.3475 35.5095 69.3475 35.8754C69.3475 37.9931 66.3286 38.1254 64.89 38.1254C60.5267 38.1254 58.1132 35.782 58.1132 30.6747V4.57006C58.1132 3.60466 58.9466 3.0986 60.8962 3.0986H62.1934C64.151 3.0986 64.9843 3.60466 64.9843 4.57006Z" fill="#069999"/>
        <path d="M91.9575 15.1038V29.6782C91.9575 34.4118 92.5157 35.3772 92.5157 36.3426C92.5157 37.4481 88.4748 37.814 87.3192 37.814C85.8333 37.814 85.739 35.8832 85.4638 34.6453C84.1195 36.3893 81.5644 38.141 78.5456 38.141C73.8994 38.141 71.7217 35.7976 71.7217 30.6903V15.1038C71.7217 14.1384 72.555 13.6324 74.5047 13.6324H75.8019C77.7515 13.6324 78.5849 14.1384 78.5849 15.1038V29.6782C78.5849 31.4689 79.3317 32.5277 81.3679 32.5277C83.2704 32.5277 84.5283 30.9161 85.0786 29.8651V15.1038C85.0786 14.1384 85.9119 13.6324 87.8616 13.6324H89.1588C91.1242 13.6324 91.9575 14.1384 91.9575 15.1038Z" fill="#069999"/>
        <path d="M112.248 16.0225C112.248 17.0346 111.132 19.6583 110.252 19.6583C109.741 19.6583 108.443 18.6929 106.258 18.6929C104.725 18.6929 103.797 19.1523 103.797 20.3045C103.797 22.3287 106.58 22.7881 109.041 23.9403C111.132 24.9524 113.082 26.6497 113.082 30.2855C113.082 34.9723 109.788 38.1488 103.986 38.1488C100.503 38.1488 96.2814 36.9965 96.2814 35.019C96.2814 33.8201 97.8144 31.4766 98.7421 31.4766C99.4418 31.4766 100.967 32.7612 103.428 32.7612C105.189 32.7612 106.116 32.0683 106.116 30.8305C106.116 29.0865 104.214 28.6272 102.123 27.7941C99.8506 26.9221 96.8317 25.4974 96.8317 20.8962C96.8317 16.1159 100.126 13.3599 105.283 13.3599C107.98 13.3521 112.248 14.0917 112.248 16.0225Z" fill="#069999"/>
        <path d="M134.395 15.5631C134.395 16.295 133.514 18.0467 132.909 18.0467C132.814 18.0467 132.673 17.9533 132.398 17.8599C131.564 17.4939 129.843 16.7543 127.335 16.7543C123.247 16.7543 120.605 19.1445 120.605 25.5363C120.605 31.9749 122.555 34.731 127.799 34.731C130.401 34.731 132.209 33.9524 133.042 33.532C133.318 33.4386 133.506 33.3452 133.553 33.3452C134.206 33.3452 135.134 35.0502 135.134 35.6886C135.134 36.7474 131.887 38.032 127.846 38.032C120.322 38.032 116.423 34.4896 116.423 25.622C116.423 16.0147 122.091 13.4377 127.429 13.4377C131.006 13.4455 134.395 14.4576 134.395 15.5631Z" fill="#069999"/>
        <path d="M144.237 4.20416V31.3287C144.237 34.0848 145.401 34.731 146.745 34.731C148.09 34.731 148.325 34.4974 148.742 34.4974C149.395 34.4974 149.717 36.2881 149.717 36.6618C149.717 37.8997 147.579 38.0398 146.329 38.0398C144.009 38.0398 140.338 37.0277 140.338 31.6946V4.20416C140.338 3.55796 140.896 3.19205 142.193 3.19205H142.382C143.679 3.19205 144.237 3.55796 144.237 4.20416Z" fill="#069999"/>
        <path d="M158.624 4.20416V6.9135C158.624 7.55969 158.066 7.92561 156.769 7.92561H156.211C154.914 7.92561 154.355 7.55969 154.355 6.9135V4.20416C154.355 3.55796 154.914 3.19205 156.211 3.19205H156.769C158.066 3.19205 158.624 3.55796 158.624 4.20416ZM158.443 14.6445V36.8486C158.443 37.4948 157.885 37.8607 156.588 37.8607H156.399C155.102 37.8607 154.544 37.4948 154.544 36.8486V14.6445C154.544 13.9983 155.102 13.6324 156.399 13.6324H156.588C157.885 13.6324 158.443 13.9983 158.443 14.6445Z" fill="#069999"/>
        <path d="M185 20.8962V36.8486C185 37.4948 184.442 37.8607 183.145 37.8607H182.956C181.659 37.8607 181.101 37.4948 181.101 36.8486V21.2621C181.101 18.4593 179.379 16.801 176.368 16.801C174.277 16.801 172.052 18.0389 170.519 20.0164V36.8408C170.519 37.487 169.961 37.8529 168.664 37.8529H168.475C167.178 37.8529 166.62 37.487 166.62 36.8408V20.7093C166.62 16.9412 166.061 15.1427 166.061 14.9169C166.061 14.045 167.964 13.8581 168.569 13.8581C169.686 13.8581 169.914 15.6955 170.197 16.8945C172.146 14.7301 174.843 13.4455 177.437 13.4455C182.162 13.4455 185 16.2483 185 20.8962Z" fill="#069999"/>
        <path d="M39.1667 31.7491H32.2248V12.8382C32.2248 11.4369 31.816 6.87457 26.5723 6.87457C24.7406 6.87457 20.9277 6.87457 20.9277 13.5156H13.9937C13.9937 5.05277 18.695 0 26.5802 0C36.5409 0 39.1745 8.40052 39.1745 12.8382V31.7491H39.1667Z" fill="#E5695A"/>
        <path d="M12.8616 39.7682C11.8553 39.7682 6.90251 39.5813 3.34119 36.0234C1.11635 33.7967 -0.0393144 30.737 -6.22816e-06 27.1635C0.0786101 19.4325 5.0393 14.8313 13.2783 14.8313C13.3569 14.8313 13.4355 14.8313 13.5141 14.8313L27.5314 14.8703L27.5079 21.7448L13.467 21.7059C7.75943 21.6436 6.97326 24.3296 6.94182 27.2336C6.92609 28.9775 7.35848 30.2699 8.27043 31.1808C9.6305 32.5355 11.8553 32.8936 12.8538 32.8936H12.8616L12.8773 39.7682C12.8695 39.7682 12.8616 39.7682 12.8616 39.7682Z" fill="#E5695A"/>
        <path d="M26.3836 54C23.1446 54 20.2437 52.8633 18.0424 50.7068C15.0472 47.7794 13.9858 43.6453 13.9858 40.7414L13.9937 22.8192H20.9355L20.9277 40.7414C20.9277 42.244 21.5487 44.4706 22.9245 45.8097C23.8443 46.7128 25.0393 47.1566 26.533 47.1177H31.0456V53.9922H26.5802C26.5094 54 26.4465 54 26.3836 54Z" fill="#E5695A"/>
        <path d="M32.1698 54V47.1254C32.1855 47.1254 32.2091 47.1254 32.2248 47.1254V32.8858H41.8711C43.2862 32.8858 47.8931 32.481 47.8931 27.2881C47.8931 22.0952 43.1289 21.3166 40.2909 21.3166V14.442C47.5314 14.442 54.8349 18.4126 54.8349 27.2881C54.8349 37.1523 46.3522 39.7604 41.8711 39.7604H39.1667V49.2742C39.1667 51.5632 37.327 54 32.1698 54Z" fill="#069999"/>
    </g>
    <defs>
        <clipPath id="clip0">
            <rect width="185" height="54" fill="white"/>
        </clipPath>
    </defs>
</svg>
