<svg width="173" height="51" viewBox="0 0 173 51" fill="none" xmlns="http://www.w3.org/2000/svg">
<g clip-path="url(#clip0)">
<path d="M60.9178 5.1066V29.3713C60.9178 30.6473 61.349 31.2023 62.4746 31.2023C62.862 31.2023 63.381 31.0293 63.6368 31.0293C64.4993 31.0293 64.9744 33.7542 64.9744 34.093C64.9744 36.0538 62.1677 36.1764 60.8301 36.1764C56.7735 36.1764 54.5295 34.0065 54.5295 29.2776V5.1066C54.5295 4.21271 55.3043 3.74414 57.117 3.74414H58.323C60.143 3.74414 60.9178 4.21271 60.9178 5.1066Z" fill="white"/>
<path d="M85.9956 14.86V28.3548C85.9956 32.7378 86.5146 33.6316 86.5146 34.5255C86.5146 35.5492 82.7577 35.888 81.6832 35.888C80.3018 35.888 80.2141 34.1002 79.9582 32.954C78.7084 34.5688 76.3329 36.1908 73.5261 36.1908C69.2064 36.1908 67.1818 34.0209 67.1818 29.292V14.86C67.1818 13.9661 67.9565 13.4976 69.7692 13.4976H70.9752C72.7879 13.4976 73.5627 13.9661 73.5627 14.86V28.3548C73.5627 30.0128 74.2571 30.9932 76.1501 30.9932C77.919 30.9932 79.0884 29.501 79.6001 28.5278V14.86C79.6001 13.9661 80.3749 13.4976 82.1875 13.4976H83.3936C85.2209 13.4976 85.9956 13.9661 85.9956 14.86Z" fill="white"/>
<path d="M104.861 15.7106C104.861 16.6477 103.823 19.0771 103.004 19.0771C102.529 19.0771 101.323 18.1832 99.2911 18.1832C97.8658 18.1832 97.0033 18.6085 97.0033 19.6754C97.0033 21.5497 99.5908 21.975 101.879 23.0419C103.823 23.979 105.635 25.5505 105.635 28.917C105.635 33.2567 102.573 36.1979 97.1788 36.1979C93.9408 36.1979 90.0157 35.131 90.0157 33.3C90.0157 32.1898 91.441 30.02 92.3035 30.02C92.954 30.02 94.372 31.2094 96.6598 31.2094C98.2971 31.2094 99.1595 30.5678 99.1595 29.4216C99.1595 27.8069 97.3907 27.3816 95.4465 26.6102C93.3341 25.8028 90.5274 24.4836 90.5274 20.2233C90.5274 15.7971 93.5899 13.2452 98.3848 13.2452C100.892 13.238 104.861 13.9228 104.861 15.7106Z" fill="white"/>
<path d="M125.451 15.2854C125.451 15.963 124.632 17.585 124.069 17.585C123.982 17.585 123.85 17.4985 123.594 17.412C122.819 17.0731 121.219 16.3883 118.887 16.3883C115.086 16.3883 112.63 18.6014 112.63 24.5198C112.63 30.4815 114.443 33.0334 119.318 33.0334C121.738 33.0334 123.419 32.3125 124.194 31.9232C124.449 31.8367 124.625 31.7502 124.669 31.7502C125.275 31.7502 126.138 33.3289 126.138 33.92C126.138 34.9004 123.119 36.0899 119.362 36.0899C112.367 36.0899 108.742 32.8099 108.742 24.5991C108.742 15.7035 114.012 13.3174 118.975 13.3174C122.3 13.3246 125.451 14.2617 125.451 15.2854Z" fill="white"/>
<path d="M134.602 4.76771V29.883C134.602 32.4349 135.684 33.0333 136.933 33.0333C138.183 33.0333 138.403 32.817 138.79 32.817C139.397 32.817 139.696 34.475 139.696 34.821C139.696 35.9672 137.708 36.097 136.546 36.097C134.39 36.097 130.976 35.1599 130.976 30.2219V4.76771C130.976 4.16938 131.495 3.83057 132.701 3.83057H132.877C134.083 3.83057 134.602 4.16938 134.602 4.76771Z" fill="white"/>
<path d="M147.978 4.76771V7.27636C147.978 7.87468 147.459 8.2135 146.253 8.2135H145.734C144.528 8.2135 144.009 7.87468 144.009 7.27636V4.76771C144.009 4.16938 144.528 3.83057 145.734 3.83057H146.253C147.459 3.83057 147.978 4.16938 147.978 4.76771ZM147.81 14.4347V34.9941C147.81 35.5924 147.291 35.9312 146.085 35.9312H145.909C144.703 35.9312 144.184 35.5924 144.184 34.9941V14.4347C144.184 13.8363 144.703 13.4975 145.909 13.4975H146.085C147.291 13.4975 147.81 13.8363 147.81 14.4347Z" fill="white"/>
<path d="M172.5 20.2233V34.994C172.5 35.5923 171.981 35.9312 170.775 35.9312H170.6C169.394 35.9312 168.875 35.5923 168.875 34.994V20.5621C168.875 17.9669 167.274 16.4314 164.475 16.4314C162.53 16.4314 160.462 17.5776 159.036 19.4087V34.9868C159.036 35.5851 158.518 35.9239 157.311 35.9239H157.136C155.93 35.9239 155.411 35.5851 155.411 34.9868V20.0502C155.411 16.5612 154.892 14.896 154.892 14.6869C154.892 13.8795 156.661 13.7065 157.224 13.7065C158.262 13.7065 158.474 15.4078 158.737 16.5179C160.549 14.5139 163.057 13.3245 165.469 13.3245C169.861 13.3245 172.5 15.9196 172.5 20.2233Z" fill="white"/>
<path d="M36.9144 30.2723H30.4604V12.7623C30.4604 11.4647 30.0803 7.24034 25.2051 7.24034C23.502 7.24034 19.9571 7.24034 19.9571 13.3894H13.5104C13.5104 5.55349 17.8813 0.875 25.2124 0.875C34.4732 0.875 36.9217 8.65326 36.9217 12.7623V30.2723H36.9144Z" fill="white"/>
<path d="M12.4578 37.6973C11.5223 37.6973 6.91746 37.5243 3.60639 34.2299C1.53789 32.1682 0.463441 29.3352 0.499987 26.0264C0.573079 18.868 5.18518 14.6077 12.8452 14.6077C12.9183 14.6077 12.9914 14.6077 13.0645 14.6077L26.0968 14.6437L26.0749 21.0091L13.0206 20.973C7.71416 20.9153 6.98324 23.4024 6.95401 26.0912C6.93939 27.706 7.34139 28.9026 8.18926 29.7461C9.45375 31.0004 11.5223 31.332 12.4505 31.332H12.4578L12.4724 37.6973C12.4651 37.6973 12.4578 37.6973 12.4578 37.6973Z" fill="white"/>
<path d="M25.0297 50.875C22.0183 50.875 19.3212 49.8225 17.2746 47.8257C14.4898 45.1152 13.5031 41.2874 13.5031 38.5985L13.5104 22.0039H19.9644L19.9571 38.5985C19.9571 39.9898 20.5345 42.0515 21.8136 43.2914C22.6688 44.1276 23.7798 44.5385 25.1685 44.5025H29.364V50.8678H25.2124C25.1466 50.875 25.0881 50.875 25.0297 50.875Z" fill="white"/>
<path d="M30.4092 50.875V44.5097C30.4239 44.5097 30.4458 44.5097 30.4604 44.5097V31.3249H39.4288C40.7444 31.3249 45.0276 30.95 45.0276 26.1418C45.0276 21.3335 40.5983 20.6127 37.9596 20.6127V14.2473C44.6914 14.2473 51.4817 17.9238 51.4817 26.1418C51.4817 35.2753 43.595 37.6902 39.4288 37.6902H36.9144V46.4993C36.9144 48.6187 35.2041 50.875 30.4092 50.875Z" fill="white"/>
</g>
<defs>
<clipPath id="clip0">
<rect x="0.5" y="0.875" width="172" height="50" fill="white"/>
</clipPath>
</defs>
</svg>
